<svg xmlns="http://www.w3.org/2000/svg" viewBox="0 0 476.69 101.9"><title>Asset 39</title><g id="Layer_2" data-name="Layer 2"><g id="Layer_1-2" data-name="Layer 1"><rect width="476.69" height="101.9" rx="25.04" fill="#f9f9fa"/><polygon points="79.47 81.51 58.43 70.55 37.48 81.67 41.4 58.28 24.36 41.79 47.81 38.29 58.23 16.98 68.81 38.21 92.29 41.53 75.37 58.15 79.47 81.51" fill="#fcb41a"/><polygon points="169.48 81.51 148.44 70.55 127.5 81.67 131.42 58.28 114.37 41.79 137.83 38.29 148.24 16.98 158.82 38.21 182.3 41.53 165.38 58.15 169.48 81.51" fill="#fcb41a"/><polygon points="259.49 81.51 238.46 70.55 217.51 81.67 221.43 58.28 204.38 41.79 227.84 38.29 238.25 16.98 248.83 38.21 272.31 41.53 255.39 58.15 259.49 81.51" fill="#fcb41a"/><polygon points="349.5 81.51 328.47 70.55 307.52 81.67 311.44 58.28 294.39 41.79 317.85 38.29 328.26 16.98 338.84 38.21 362.32 41.53 345.4 58.15 349.5 81.51" fill="#fcb41a"/><polygon points="418.45 17.32 418.45 70.56 397.54 81.67 401.45 58.28 384.41 41.79 407.86 38.29 418.28 16.98 418.45 17.32" fill="#fcb41a"/><polygon points="435.42 58.15 439.52 81.5 418.48 70.55 418.45 70.56 418.45 17.32 428.85 38.2 452.33 41.53 435.42 58.15" fill="#dcdad9"/></g></g></svg>